<?xml version="1.0" encoding="iso-8859-1"?>
<!-- Generator: Adobe Illustrator 19.0.0, SVG Export Plug-In . SVG Version: 6.00 Build 0)  -->
<svg version="1.1" id="Capa_1" xmlns="http://www.w3.org/2000/svg" xmlns:xlink="http://www.w3.org/1999/xlink" x="0px" y="0px"
	 viewBox="0 0 512 512" style="enable-background:new 0 0 512 512;" xml:space="preserve">
<path style="fill:#417A47;" d="M359.889,454.023v21.355l-7.292,22.484c-1.286,3.964-4.895,6.638-8.96,6.638H168.363
	c-4.065,0-7.674-2.674-8.96-6.638l-7.292-22.484v-21.355H359.889z"/>
<path style="fill:#77BD63;" d="M373.545,127.434c6.524,11.734,9.955,25.014,9.955,38.528v280.295
	c0,16.083-12.685,29.121-28.333,29.121H156.833c-15.648,0-28.333-13.038-28.333-29.121V165.963c0-13.514,3.431-26.795,9.955-38.528
	l33.49-60.236l166.222-3.64L373.545,127.434z"/>
<path style="fill:#5E9F51;" d="M192.999,475.379h-36.165c-15.648,0-28.333-13.038-28.333-29.121V165.963
	c0-13.514,3.431-26.794,9.955-38.528l33.49-60.236l166.222-3.64l5.694,10.281l-136.107,2.981l-32.7,58.816
	c-6.37,11.457-9.72,24.424-9.72,37.62v273.688C165.333,462.648,177.72,475.379,192.999,475.379z"/>
<path style="fill:#FFC261;" d="M295.713,306.541c-27.662,28.431-72.511,28.431-100.173,0l100.173-102.959
	C323.376,232.013,323.376,278.109,295.713,306.541z"/>
<path style="fill:#FFDB8B;" d="M313.752,274.991c-3.188,11.552-9.191,22.456-18.039,31.549
	c-8.848,9.094-19.459,15.265-30.699,18.541l-20.743-68.627l2.544-2.615L313.752,274.991z"/>
<path style="fill:#B5EC93;" d="M193.667,213.289c-10.432,0-18.889-8.692-18.889-19.414s8.457-19.414,18.889-19.414
	s18.889,8.692,18.889,19.414S204.099,213.289,193.667,213.289z M325.889,349.188c-10.432,0-18.889,8.692-18.889,19.414
	s8.457,19.414,18.889,19.414s18.889-8.692,18.889-19.414S336.321,349.188,325.889,349.188z M316.444,135.633
	c0-16.083-12.685-29.121-28.333-29.121s-28.333,13.038-28.333,29.121s12.685,29.121,28.333,29.121S316.444,151.716,316.444,135.633z
	 M212.556,378.309c-15.648,0-28.333,13.038-28.333,29.121s12.685,29.121,28.333,29.121s28.333-13.038,28.333-29.121
	S228.204,378.309,212.556,378.309z"/>
<path style="fill:#C7CCD1;" d="M158.327,58.226L158.327,58.226c1.928-5.946,7.342-9.956,13.44-9.956h168.467
	c6.098,0,11.511,4.01,13.44,9.956l0,0c3.058,9.428-3.77,19.165-13.44,19.165H171.766C162.097,77.391,155.269,67.654,158.327,58.226z
	"/>
<path d="M380.1,123.791l-24.975-44.922c0.91-0.883,1.755-1.854,2.522-2.91c4.184-5.755,5.365-13.249,3.16-20.047
	c-2.938-9.057-11.206-15.142-20.574-15.142h-38.781l21.051-28.849c2.441-3.346,1.708-8.038-1.638-10.479
	C317.52-1,312.828-0.267,310.386,3.08l-27.503,37.69H171.767c-9.369,0-17.637,6.085-20.573,15.142
	c-2.205,6.798-1.024,14.291,3.159,20.046c0.768,1.057,1.612,2.028,2.522,2.912L131.9,123.791c-7.13,12.826-10.9,27.409-10.9,42.173
	v280.294c0,16.38,10.576,30.282,25.117,34.949l6.151,18.969c2.293,7.072,8.762,11.824,16.095,11.824h175.274
	c7.333,0,13.801-4.752,16.093-11.824l6.152-18.969C380.424,476.54,391,462.638,391,446.258V165.964
	C391,151.2,387.23,136.617,380.1,123.791z M165.462,60.54c0.925-2.853,3.458-4.77,6.305-4.77h168.467
	c2.847,0,5.381,1.917,6.307,4.77c0.739,2.28,0.365,4.686-1.025,6.599c-0.748,1.028-2.428,2.753-5.281,2.753H171.767
	c-2.854,0-4.533-1.725-5.281-2.753C165.095,65.226,164.722,62.821,165.462,60.54z M376,446.258c0,11.922-9.346,21.621-20.833,21.621
	h-40.854c-4.143,0-7.5,3.357-7.5,7.5s3.357,7.5,7.5,7.5h35.259l-4.109,12.67c-0.281,0.868-1.015,1.451-1.824,1.451H168.363
	c-0.811,0-1.544-0.583-1.826-1.451l-4.108-12.67h124.968c4.143,0,7.5-3.357,7.5-7.5s-3.357-7.5-7.5-7.5H156.833
	c-11.487,0-20.833-9.699-20.833-21.621V165.964c0-12.219,3.115-24.282,9.01-34.884l25.694-46.214
	c0.353,0.017,0.707,0.025,1.063,0.025h168.467c0.356,0,0.711-0.009,1.063-0.025l25.693,46.214c5.895,10.602,9.01,22.665,9.01,34.884
	V446.258z M321.104,276.444c0.064-0.179,0.122-0.361,0.173-0.548c0.073-0.266,0.131-0.531,0.175-0.797
	c6.622-26.559-0.155-55.952-20.33-76.713c-0.059-0.061-0.117-0.12-0.178-0.18c-1.458-1.418-3.345-2.124-5.229-2.124
	c-0.001,0-0.001,0-0.001,0c-0.007-0.004-0.016,0.001-0.022,0c-0.007,0.001-0.008-0.004-0.023,0c-0.008,0.001-0.016-0.004-0.022,0
	c-0.008,0.001-0.019,0.006-0.022,0.001c-0.008,0-0.014,0.003-0.023,0c-0.008,0-0.006,0.003-0.023,0
	c-0.008,0-0.017,0.001-0.023,0.001c-0.008,0-0.019-0.001-0.023,0c-0.008,0-0.014,0.001-0.024,0.001
	c-0.008,0-0.016,0.001-0.023,0.001c-0.008,0.001-0.016,0.001-0.024,0c-0.01,0.003-0.017,0-0.025,0.001
	c-0.01-0.001-0.018,0.001-0.025,0.001c-1.843,0.076-3.66,0.826-5.051,2.247c-0.006,0.006-0.012,0.012-0.018,0.017L190.164,301.311
	c-0.005,0.006-0.011,0.012-0.017,0.018c-0.001,0.002-0.004,0.004-0.005,0.006c-0.004,0.004-0.008,0.008-0.012,0.012
	c-0.002,0.002-0.005,0.005-0.007,0.007c-0.003,0.004-0.006,0.007-0.01,0.01c-0.003,0.004-0.006,0.007-0.009,0.01
	c-0.002,0.003-0.005,0.005-0.008,0.008c-0.002,0.003-0.006,0.007-0.008,0.01c-0.003,0.002-0.006,0.005-0.008,0.008
	c-0.004,0.003-0.007,0.007-0.01,0.01c-0.002,0.003-0.005,0.005-0.007,0.008c-0.004,0.003-0.007,0.007-0.011,0.011
	c-0.002,0.002-0.004,0.004-0.006,0.006c-0.003,0.005-0.007,0.009-0.011,0.013c-0.002,0.001-0.004,0.003-0.005,0.005
	c-0.004,0.005-0.008,0.009-0.013,0.014c-0.001,0.001-0.002,0.003-0.003,0.004c-0.005,0.005-0.009,0.009-0.014,0.014
	c-0.001,0.001-0.002,0.003-0.003,0.004c-0.005,0.005-0.009,0.01-0.014,0.015c-0.001,0.001-0.001,0.002-0.002,0.002
	c-0.005,0.006-0.01,0.011-0.015,0.017c0,0,0,0.001-0.001,0.001c-0.005,0.006-0.01,0.012-0.016,0.018
	c-1.288,1.436-1.925,3.245-1.914,5.049c0,0.008,0,0.015,0,0.021c0,0.001,0,0.001,0,0.002c0,0.007,0,0.014,0.001,0.02
	c0,0.002,0,0.003,0,0.005c0,0.005,0,0.011,0,0.017c0,0.002,0,0.005,0,0.007c0,0.005,0,0.01,0,0.015c0,0.003,0,0.007,0,0.01
	c0,0.004,0,0.008,0.001,0.012c0,0.004,0,0.009,0,0.013c0,0.003,0,0.006,0,0.009c0,0.005,0,0.011,0,0.016
	c0,0.002,0.001,0.004,0.001,0.006c0,0.006,0,0.013,0,0.019c0,0.001,0,0.002,0,0.003c0,0.008,0.001,0.015,0.001,0.021
	c0.017,0.531,0.09,1.062,0.219,1.58c0,0.001,0,0.002,0,0.002c0.002,0.005,0.003,0.009,0.004,0.014
	c0.001,0.003,0.001,0.006,0.002,0.009c0,0.002,0.001,0.003,0.001,0.004c0.314,1.245,0.953,2.424,1.912,3.402
	c14.802,15.203,34.49,23.575,55.445,23.575c20.963,0,40.659-8.379,55.463-23.593C310.97,301.616,317.642,289.392,321.104,276.444z
	 M295.395,214.666c11.037,14.426,15.332,32.56,12.887,49.872l-48.432-13.339L295.395,214.666z M245.627,320.365
	c-14.459,0-28.186-4.967-39.339-14.115l35.438-36.423l13.002,49.873C251.739,320.14,248.699,320.365,245.627,320.365z
	 M269.189,315.713l-13.027-49.972l48.374,13.323c-3.1,8.108-7.831,15.703-14.197,22.246
	C284.193,307.628,277.011,312.484,269.189,315.713z M288.111,172.255c19.759,0,35.833-16.428,35.833-36.621
	s-16.074-36.621-35.833-36.621s-35.833,16.428-35.833,36.621S268.353,172.255,288.111,172.255z M288.111,114.013
	c11.487,0,20.833,9.699,20.833,21.621s-9.346,21.621-20.833,21.621s-20.833-9.699-20.833-21.621S276.624,114.013,288.111,114.013z
	 M220.056,193.876c0-14.841-11.838-26.914-26.389-26.914s-26.389,12.073-26.389,26.914s11.838,26.914,26.389,26.914
	S220.056,208.717,220.056,193.876z M182.278,193.876c0-6.569,5.109-11.914,11.389-11.914s11.389,5.345,11.389,11.914
	s-5.109,11.914-11.389,11.914S182.278,200.445,182.278,193.876z M325.889,341.688c-14.551,0-26.389,12.073-26.389,26.914
	s11.838,26.914,26.389,26.914c14.552,0,26.39-12.073,26.39-26.914C352.278,353.761,340.44,341.688,325.889,341.688z
	 M325.889,380.516c-6.279,0-11.389-5.345-11.389-11.914s5.109-11.914,11.389-11.914s11.39,5.345,11.39,11.914
	C337.278,375.171,332.169,380.516,325.889,380.516z M212.556,370.809c-19.759,0-35.833,16.428-35.833,36.621
	s16.074,36.621,35.833,36.621s35.833-16.428,35.833-36.621S232.314,370.809,212.556,370.809z M212.556,429.051
	c-11.487,0-20.833-9.699-20.833-21.621s9.346-21.621,20.833-21.621s20.833,9.699,20.833,21.621S224.043,429.051,212.556,429.051z"/>
<g>
</g>
<g>
</g>
<g>
</g>
<g>
</g>
<g>
</g>
<g>
</g>
<g>
</g>
<g>
</g>
<g>
</g>
<g>
</g>
<g>
</g>
<g>
</g>
<g>
</g>
<g>
</g>
<g>
</g>
</svg>
